<mxfile host="app.diagrams.net" modified="2023-09-05T19:19:12.431Z" agent="Mozilla/5.0 (Windows NT 10.0; Win64; x64) AppleWebKit/537.36 (KHTML, like Gecko) Chrome/116.0.0.0 Safari/537.36" etag="9xQkNi9psk4qTB_gpKvb" version="21.7.2" type="device">
  <diagram id="C5RBs43oDa-KdzZeNtuy" name="Page-1">
    <mxGraphModel dx="3500" dy="1807" grid="1" gridSize="10" guides="1" tooltips="1" connect="1" arrows="1" fold="1" page="1" pageScale="1" pageWidth="827" pageHeight="1169" math="0" shadow="0">
      <root>
        <mxCell id="WIyWlLk6GJQsqaUBKTNV-0" />
        <mxCell id="WIyWlLk6GJQsqaUBKTNV-1" parent="WIyWlLk6GJQsqaUBKTNV-0" />
        <mxCell id="b4tJp916rbjAuBSR-XiV-288" value="Company Information" style="whiteSpace=wrap;strokeWidth=2;verticalAlign=top;" vertex="1" parent="WIyWlLk6GJQsqaUBKTNV-1">
          <mxGeometry x="187" y="20" width="154" height="83" as="geometry" />
        </mxCell>
        <mxCell id="b4tJp916rbjAuBSR-XiV-289" value="Company" style="rounded=1;absoluteArcSize=1;arcSize=14;whiteSpace=wrap;strokeWidth=2;" vertex="1" parent="WIyWlLk6GJQsqaUBKTNV-1">
          <mxGeometry x="223" y="45" width="81" height="33" as="geometry" />
        </mxCell>
        <mxCell id="b4tJp916rbjAuBSR-XiV-290" value="Customer Management System" style="whiteSpace=wrap;strokeWidth=2;verticalAlign=top;" vertex="1" parent="WIyWlLk6GJQsqaUBKTNV-1">
          <mxGeometry x="20" y="172" width="530" height="287" as="geometry" />
        </mxCell>
        <mxCell id="b4tJp916rbjAuBSR-XiV-291" value="OrderGiven" style="rounded=1;absoluteArcSize=1;arcSize=14;whiteSpace=wrap;strokeWidth=2;" vertex="1" parent="WIyWlLk6GJQsqaUBKTNV-1">
          <mxGeometry x="150" y="299" width="97" height="33" as="geometry" />
        </mxCell>
        <mxCell id="b4tJp916rbjAuBSR-XiV-292" value="Customer" style="rounded=1;absoluteArcSize=1;arcSize=14;whiteSpace=wrap;strokeWidth=2;" vertex="1" parent="WIyWlLk6GJQsqaUBKTNV-1">
          <mxGeometry x="222" y="197" width="84" height="33" as="geometry" />
        </mxCell>
        <mxCell id="b4tJp916rbjAuBSR-XiV-293" value="Product" style="rounded=1;absoluteArcSize=1;arcSize=14;whiteSpace=wrap;strokeWidth=2;" vertex="1" parent="WIyWlLk6GJQsqaUBKTNV-1">
          <mxGeometry x="122" y="400" width="70" height="33" as="geometry" />
        </mxCell>
        <mxCell id="b4tJp916rbjAuBSR-XiV-294" value="Invoice" style="rounded=1;absoluteArcSize=1;arcSize=14;whiteSpace=wrap;strokeWidth=2;" vertex="1" parent="WIyWlLk6GJQsqaUBKTNV-1">
          <mxGeometry x="394" y="400" width="66" height="33" as="geometry" />
        </mxCell>
        <mxCell id="b4tJp916rbjAuBSR-XiV-295" value="Employee" style="rounded=1;absoluteArcSize=1;arcSize=14;whiteSpace=wrap;strokeWidth=2;" vertex="1" parent="WIyWlLk6GJQsqaUBKTNV-1">
          <mxGeometry x="361" y="197" width="84" height="33" as="geometry" />
        </mxCell>
        <mxCell id="b4tJp916rbjAuBSR-XiV-296" value="Creates" style="curved=1;startArrow=none;endArrow=block;exitX=0.0014415582021077473;exitY=0.8556642531173895;entryX=0.10374199118089794;entryY=-0.012121142763080019;rounded=0;" edge="1" parent="WIyWlLk6GJQsqaUBKTNV-1" source="b4tJp916rbjAuBSR-XiV-292" target="b4tJp916rbjAuBSR-XiV-291">
          <mxGeometry relative="1" as="geometry">
            <Array as="points">
              <mxPoint x="82" y="264" />
            </Array>
          </mxGeometry>
        </mxCell>
        <mxCell id="b4tJp916rbjAuBSR-XiV-297" value="Contains" style="curved=1;startArrow=none;endArrow=block;exitX=0.6967608969924884;exitY=0.012121316158410275;entryX=0.4962105406928308;entryY=1.0000001155968867;rounded=0;" edge="1" parent="WIyWlLk6GJQsqaUBKTNV-1" source="b4tJp916rbjAuBSR-XiV-293" target="b4tJp916rbjAuBSR-XiV-291">
          <mxGeometry relative="1" as="geometry">
            <Array as="points">
              <mxPoint x="198" y="366" />
            </Array>
          </mxGeometry>
        </mxCell>
        <mxCell id="b4tJp916rbjAuBSR-XiV-298" value="Generates" style="curved=1;startArrow=none;endArrow=block;exitX=0.9938909687946752;exitY=0.9654803080440708;entryX=0.1445040527280698;entryY=0.012121316158410275;rounded=0;" edge="1" parent="WIyWlLk6GJQsqaUBKTNV-1" source="b4tJp916rbjAuBSR-XiV-291" target="b4tJp916rbjAuBSR-XiV-294">
          <mxGeometry relative="1" as="geometry">
            <Array as="points">
              <mxPoint x="356" y="366" />
            </Array>
          </mxGeometry>
        </mxCell>
        <mxCell id="b4tJp916rbjAuBSR-XiV-299" value="Processes" style="curved=1;startArrow=none;endArrow=block;exitX=-0.001223030544462658;exitY=0.8053725780534055;entryX=0.4679237798927528;entryY=-0.012121142763080019;rounded=0;" edge="1" parent="WIyWlLk6GJQsqaUBKTNV-1" source="b4tJp916rbjAuBSR-XiV-295" target="b4tJp916rbjAuBSR-XiV-291">
          <mxGeometry relative="1" as="geometry">
            <Array as="points">
              <mxPoint x="190" y="264" />
            </Array>
          </mxGeometry>
        </mxCell>
        <mxCell id="b4tJp916rbjAuBSR-XiV-300" value="Creates" style="curved=1;startArrow=none;endArrow=block;exitX=0.5387617992849211;exitY=1.0060606869784268;entryX=0.4258387129509844;entryY=0.012121316158410275;rounded=0;" edge="1" parent="WIyWlLk6GJQsqaUBKTNV-1" source="b4tJp916rbjAuBSR-XiV-295" target="b4tJp916rbjAuBSR-XiV-294">
          <mxGeometry relative="1" as="geometry">
            <Array as="points">
              <mxPoint x="413" y="264" />
              <mxPoint x="413" y="366" />
            </Array>
          </mxGeometry>
        </mxCell>
        <mxCell id="b4tJp916rbjAuBSR-XiV-301" value="Receives" style="curved=1;startArrow=none;endArrow=block;exitX=1.000567356745402;exitY=0.7856196144204856;entryX=0.8138972432702258;entryY=0.012121316158410275;rounded=0;" edge="1" parent="WIyWlLk6GJQsqaUBKTNV-1" source="b4tJp916rbjAuBSR-XiV-292" target="b4tJp916rbjAuBSR-XiV-294">
          <mxGeometry relative="1" as="geometry">
            <Array as="points">
              <mxPoint x="491" y="264" />
              <mxPoint x="491" y="366" />
            </Array>
          </mxGeometry>
        </mxCell>
        <mxCell id="b4tJp916rbjAuBSR-XiV-302" value="Places" style="curved=1;startArrow=none;endArrow=block;exitX=0.7627660293119137;exitY=-0.012121142763080019;entryX=0.5512118618023663;entryY=1.0060606869784268;rounded=0;" edge="1" parent="WIyWlLk6GJQsqaUBKTNV-1" source="b4tJp916rbjAuBSR-XiV-291" target="b4tJp916rbjAuBSR-XiV-292">
          <mxGeometry relative="1" as="geometry">
            <Array as="points">
              <mxPoint x="277" y="264" />
            </Array>
          </mxGeometry>
        </mxCell>
        <mxCell id="b4tJp916rbjAuBSR-XiV-303" value="Contains" style="curved=1;startArrow=none;endArrow=block;exitX=0.09781483181649644;exitY=1.0000001155968867;entryX=0.1446982718352822;entryY=0.012121316158410275;rounded=0;" edge="1" parent="WIyWlLk6GJQsqaUBKTNV-1" source="b4tJp916rbjAuBSR-XiV-291" target="b4tJp916rbjAuBSR-XiV-293">
          <mxGeometry relative="1" as="geometry">
            <Array as="points">
              <mxPoint x="80" y="366" />
            </Array>
          </mxGeometry>
        </mxCell>
        <mxCell id="b4tJp916rbjAuBSR-XiV-304" value="Owns" style="curved=1;startArrow=none;endArrow=block;exitX=0.5072144991085853;exitY=1.0121212583599668;entryX=0.5010044574737549;entryY=-0.0060605713815400095;rounded=0;" edge="1" parent="WIyWlLk6GJQsqaUBKTNV-1" source="b4tJp916rbjAuBSR-XiV-289" target="b4tJp916rbjAuBSR-XiV-292">
          <mxGeometry relative="1" as="geometry">
            <Array as="points" />
          </mxGeometry>
        </mxCell>
      </root>
    </mxGraphModel>
  </diagram>
</mxfile>
